<svg width="24" height="16" viewBox="0 0 24 16" fill="none" xmlns="http://www.w3.org/2000/svg">
<path d="M12.2929 3.29302C11.9024 3.68354 11.9024 4.3167 12.2929 4.70723C12.6834 5.09775 13.3166 5.09775 13.7071 4.70723L12.2929 3.29302ZM14.7071 3.29302C14.7071 2.74073 14.2594 2.29302 13.7071 2.29302L4.70711 2.29302C4.15482 2.29302 3.70711 2.74073 3.70711 3.29302C3.70711 3.8453 4.15482 4.29302 4.70711 4.29302L12.7071 4.29302L12.7071 12.293C12.7071 12.8453 13.1548 13.293 13.7071 13.293C14.2594 13.293 14.7071 12.8453 14.7071 12.293L14.7071 3.29302ZM13.7071 4.70723L14.4142 4.00012L13 2.58591L12.2929 3.29302L13.7071 4.70723Z" fill="#0B972A"/>
</svg>
