<svg width="30" height="30" viewBox="0 0 30 30" fill="none" xmlns="http://www.w3.org/2000/svg">
<path d="M23.426 7.62027C22.3324 6.52733 21.0317 5.66357 19.6001 5.07956C18.1685 4.49555 16.6348 4.20304 15.0887 4.21914C13.5424 4.20743 12.009 4.50189 10.577 5.08555C9.14496 5.66921 7.84262 6.53052 6.74502 7.61983C5.64743 8.70915 4.77628 10.0049 4.1818 11.4325C3.58731 12.86 3.28125 14.3911 3.28125 15.9375V22.5C3.28193 23.1214 3.52908 23.7172 3.96847 24.1566C4.40786 24.596 5.00361 24.8431 5.625 24.8438H7.5C8.12139 24.8431 8.71714 24.596 9.15653 24.1566C9.59592 23.7172 9.84307 23.1214 9.84375 22.5V17.8125C9.84307 17.1911 9.59592 16.5954 9.15653 16.156C8.71714 15.7166 8.12139 15.4695 7.5 15.4688H4.22871C4.35031 12.6779 5.55041 10.0431 7.57618 8.11954C9.60195 6.19596 12.2953 5.13374 15.0887 5.15664C17.881 5.13551 20.5726 6.19852 22.5968 8.12192C24.6211 10.0453 25.8203 12.6791 25.9418 15.4688H22.6705C22.0491 15.4695 21.4534 15.7166 21.014 16.156C20.5746 16.5954 20.3274 17.1911 20.3268 17.8125V22.5C20.3274 23.1214 20.5746 23.7172 21.014 24.1566C21.4534 24.596 22.0491 24.8431 22.6705 24.8438H24.5455C25.1669 24.8431 25.7626 24.596 26.202 24.1566C26.6414 23.7172 26.8886 23.1214 26.8893 22.5V15.9375C26.8937 14.3906 26.5897 12.8583 25.995 11.4302C25.4004 10.0021 24.527 8.70687 23.4259 7.62027H23.426ZM7.5 16.4063C7.87284 16.4067 8.23029 16.555 8.49392 16.8186C8.75756 17.0822 8.90585 17.4397 8.90625 17.8125V22.5C8.90585 22.8729 8.75756 23.2303 8.49392 23.494C8.23029 23.7576 7.87284 23.9059 7.5 23.9063H5.625C5.25216 23.9059 4.89471 23.7576 4.63108 23.494C4.36744 23.2303 4.21915 22.8729 4.21875 22.5V16.4063H7.5ZM25.9519 22.5C25.9515 22.8729 25.8032 23.2303 25.5395 23.494C25.2759 23.7576 24.9185 23.9059 24.5456 23.9063H22.6706C22.2978 23.9059 21.9403 23.7576 21.6767 23.494C21.4131 23.2303 21.2648 22.8729 21.2644 22.5V17.8125C21.2648 17.4397 21.4131 17.0822 21.6767 16.8186C21.9403 16.555 22.2978 16.4067 22.6706 16.4063H25.9519V22.5Z" fill="#0B972A"/>
</svg>
