<svg width="20" height="20" viewBox="0 0 20 20" fill="none" xmlns="http://www.w3.org/2000/svg">
<path d="M9.63704 5.27847L9.99857 5.6569L10.3601 5.27847C11.1031 4.50072 12.3537 3.49154 13.7455 3.49154C15.0147 3.49154 16.0625 3.93197 16.7917 4.65992C17.5208 5.3878 17.9617 6.43322 17.9617 7.69923C17.9617 9.08085 17.4209 10.2309 16.5755 11.2846C15.7205 12.3503 14.5791 13.2879 13.4055 14.2494L13.3992 14.2546C12.3081 15.1482 11.1357 16.1084 10.228 17.1812C10.1758 17.2428 10.1 17.2777 10.0217 17.2777H9.97704C9.89861 17.2777 9.82249 17.2429 9.77007 17.1814C8.87159 16.1176 7.71043 15.1652 6.62869 14.2779L6.59414 14.2496L6.59394 14.2494C5.42007 13.2875 4.27879 12.3497 3.4241 11.2841C2.579 10.2304 2.03857 9.08052 2.03857 7.69923C2.03857 6.43322 2.4794 5.38782 3.20863 4.65994C3.93792 3.93199 4.98584 3.49154 6.2555 3.49154C7.64627 3.49154 8.89364 4.50031 9.63704 5.27847Z" stroke="white"/>
</svg>
