<svg width="72" height="43" viewBox="0 0 72 43" fill="none" xmlns="http://www.w3.org/2000/svg">
<path d="M29.1512 8.71365L29.7522 8.11262L29.7522 8.11261L29.1512 8.71365ZM29.1512 32.9663L29.7522 33.5674H29.7522L29.1512 32.9663ZM21.1024 21.3009H21.9524L20.3443 20.9166L21.1024 21.3009ZM18.514 26.4068L17.7559 26.0224L17.7538 26.0266L18.514 26.4068ZM17.8758 27.0805L18.2559 27.8407L18.2804 27.8285L18.3041 27.8147L17.8758 27.0805ZM13.6209 26.9741L13.0827 27.6319H13.0827L13.6209 26.9741ZM13.1245 26.4068L13.9058 26.0719L13.895 26.0468L13.8827 26.0224L13.1245 26.4068ZM10.5362 21.3009L11.2943 20.9166L9.68617 21.3009H10.5362ZM10.2525 32.9663L9.65147 32.3653H9.65147L10.2525 32.9663ZM11.1744 9.38734L11.9205 8.98009L11.9174 8.97454L11.1744 9.38734ZM15.8193 17.8971L15.0732 18.3043L15.8193 19.6712L16.5654 18.3043L15.8193 17.8971ZM20.4642 9.38734L19.7211 8.97453L19.7181 8.9801L20.4642 9.38734ZM21.9888 9.28H28.4775V7.58H21.9888V9.28ZM28.4775 9.28C28.5019 9.28 28.5101 9.28388 28.5111 9.2843C28.5125 9.28492 28.5257 9.29028 28.5501 9.31469L29.7522 8.11261C29.4088 7.76919 28.97 7.58 28.4775 7.58V9.28ZM28.5501 9.31469C28.5745 9.33911 28.5799 9.35229 28.5805 9.35375C28.5809 9.35474 28.5848 9.36291 28.5848 9.38734H30.2848C30.2848 8.89479 30.0956 8.45604 29.7522 8.11262L28.5501 9.31469ZM28.5848 9.38734V32.2927H30.2848V9.38734H28.5848ZM28.5848 32.2927C28.5848 32.3171 28.5809 32.3253 28.5805 32.3262C28.5799 32.3277 28.5745 32.3409 28.5501 32.3653L29.7522 33.5674C30.0956 33.224 30.2848 32.7852 30.2848 32.2927H28.5848ZM28.5501 32.3653C28.5257 32.3897 28.5125 32.3951 28.5111 32.3957C28.5101 32.3961 28.5019 32.4 28.4775 32.4V34.1C28.97 34.1 29.4088 33.9108 29.7522 33.5674L28.5501 32.3653ZM28.4775 32.4H22.0597V34.1H28.4775V32.4ZM22.0597 32.4C22.0353 32.4 22.0271 32.3961 22.0262 32.3957C22.0247 32.3951 22.0115 32.3897 21.9871 32.3653L20.785 33.5674C21.1284 33.9108 21.5672 34.1 22.0597 34.1V32.4ZM21.9871 32.3653C21.9627 32.3409 21.9573 32.3277 21.9567 32.3262C21.9563 32.3253 21.9524 32.3171 21.9524 32.2927H20.2524C20.2524 32.7852 20.4416 33.224 20.785 33.5674L21.9871 32.3653ZM21.9524 32.2927V21.3009H20.2524V32.2927H21.9524ZM20.3443 20.9166L17.7559 26.0224L19.2722 26.7911L21.8605 21.6853L20.3443 20.9166ZM17.7538 26.0266C17.6886 26.1571 17.5938 26.2609 17.4475 26.3462L18.3041 27.8147C18.7251 27.5691 19.0559 27.2238 19.2743 26.7869L17.7538 26.0266ZM17.4957 26.3202C17.316 26.41 17.1616 26.4432 17.0248 26.4432V28.1432C17.4553 28.1432 17.8683 28.0345 18.2559 27.8407L17.4957 26.3202ZM17.0248 26.4432H14.6137V28.1432H17.0248V26.4432ZM14.6137 26.4432C14.3681 26.4432 14.239 26.3815 14.1592 26.3162L13.0827 27.6319C13.5229 27.9921 14.0557 28.1432 14.6137 28.1432V26.4432ZM14.1592 26.3162C14.0543 26.2304 13.9849 26.1625 13.9415 26.113C13.8961 26.0611 13.8953 26.0475 13.9058 26.0719L12.3433 26.7416C12.4968 27.0999 12.7936 27.3954 13.0827 27.6319L14.1592 26.3162ZM13.8827 26.0224L11.2943 20.9166L9.77803 21.6853L12.3664 26.7911L13.8827 26.0224ZM9.68617 21.3009V32.2927H11.3862V21.3009H9.68617ZM9.68617 32.2927C9.68617 32.3171 9.68229 32.3253 9.68187 32.3262C9.68125 32.3277 9.67589 32.3409 9.65147 32.3653L10.8536 33.5674C11.197 33.224 11.3862 32.7852 11.3862 32.2927H9.68617ZM9.65147 32.3653C9.62706 32.3897 9.61388 32.3951 9.61242 32.3957C9.61143 32.3961 9.60326 32.4 9.57883 32.4V34.1C10.0714 34.1 10.5101 33.9108 10.8536 33.5674L9.65147 32.3653ZM9.57883 32.4H3.16109V34.1H9.57883V32.4ZM3.16109 32.4C3.13666 32.4 3.12849 32.3961 3.1275 32.3957C3.12603 32.3951 3.11286 32.3897 3.08844 32.3653L1.88636 33.5674C2.22978 33.9108 2.66854 34.1 3.16109 34.1V32.4ZM3.08844 32.3653C3.06403 32.3409 3.05866 32.3277 3.05805 32.3262C3.05763 32.3253 3.05374 32.3171 3.05374 32.2927H1.35374C1.35374 32.7852 1.54294 33.224 1.88636 33.5674L3.08844 32.3653ZM3.05374 32.2927V9.38734H1.35374V32.2927H3.05374ZM3.05374 9.38734C3.05374 9.36291 3.05763 9.35474 3.05805 9.35375C3.05866 9.35229 3.06403 9.33911 3.08844 9.31469L1.88636 8.11261C1.54294 8.45604 1.35374 8.89479 1.35374 9.38734H3.05374ZM3.08844 9.31469C3.11286 9.29028 3.12603 9.28492 3.1275 9.2843C3.12849 9.28388 3.13666 9.28 3.16109 9.28V7.58C2.66854 7.58 2.22978 7.76919 1.88636 8.11261L3.08844 9.31469ZM3.16109 9.28H9.64974V7.58H3.16109V9.28ZM9.64974 9.28C9.96593 9.28 10.2078 9.3978 10.4314 9.80014L11.9174 8.97454C11.4318 8.10043 10.6573 7.58 9.64974 7.58V9.28ZM10.4283 9.79458L15.0732 18.3043L16.5654 17.4898L11.9205 8.9801L10.4283 9.79458ZM16.5654 18.3043L21.2103 9.79458L19.7181 8.9801L15.0732 17.4898L16.5654 18.3043ZM21.2072 9.80014C21.4307 9.3978 21.6726 9.28 21.9888 9.28V7.58C20.9813 7.58 20.2068 8.10043 19.7211 8.97454L21.2072 9.80014Z" fill="#0B972A"/>
<path d="M33.0871 11.5425H34.431C34.484 11.5425 34.5297 11.5617 34.5683 11.6003C34.6068 11.6388 34.6261 11.6846 34.6261 11.7376V13.8617L36.2011 11.687C36.2734 11.5906 36.3673 11.5425 36.4829 11.5425H37.6533C37.7063 11.5425 37.7521 11.5617 37.7906 11.6003C37.8291 11.6388 37.8484 11.6846 37.8484 11.7376V16.4049C37.8484 16.4579 37.8291 16.5036 37.7906 16.5422C37.7521 16.5807 37.7063 16.6 37.6533 16.6H36.3095C36.2565 16.6 36.2107 16.5807 36.1722 16.5422C36.1337 16.5036 36.1144 16.4579 36.1144 16.4049V14.4397L34.5394 16.4483C34.4623 16.5494 34.366 16.6 34.2504 16.6H33.0871C33.0342 16.6 32.9884 16.5807 32.9499 16.5422C32.9113 16.5036 32.8921 16.4579 32.8921 16.4049V11.7376C32.8921 11.6846 32.9113 11.6388 32.9499 11.6003C32.9884 11.5617 33.0342 11.5425 33.0871 11.5425ZM39.5651 11.5425H42.2673C42.9513 11.5425 43.4931 11.7087 43.8929 12.041C44.2927 12.3734 44.4926 12.7996 44.4926 13.3198C44.4926 13.84 44.324 14.2543 43.9868 14.5625C43.6497 14.866 43.0765 15.0177 42.2673 15.0177H41.3136V16.4049C41.3136 16.4579 41.2943 16.5036 41.2558 16.5422C41.2173 16.5807 41.1715 16.6 41.1185 16.6H39.5651C39.5122 16.6 39.4664 16.5807 39.4279 16.5422C39.3893 16.5036 39.3701 16.4579 39.3701 16.4049V11.7376C39.3701 11.6846 39.3893 11.6388 39.4279 11.6003C39.4664 11.5617 39.5122 11.5425 39.5651 11.5425ZM41.3208 12.8863V13.6811H42.2384C42.3492 13.6811 42.4383 13.6474 42.5057 13.5799C42.578 13.5125 42.6141 13.4186 42.6141 13.2982C42.6141 13.1777 42.5804 13.079 42.5129 13.0019C42.4455 12.9249 42.354 12.8863 42.2384 12.8863H41.3208Z" fill="white"/>
<path d="M34.8139 20.9542H36.1144C36.7598 20.9542 37.2584 21.0939 37.61 21.3732C37.9664 21.6478 38.1446 22.0307 38.1446 22.522C38.1446 23.0133 37.9664 23.4011 37.61 23.6852C37.2536 23.9694 36.7526 24.1115 36.1072 24.1115H33.1305C33.0775 24.1115 33.0317 24.0922 32.9932 24.0537C32.9547 24.0152 32.9354 23.9694 32.9354 23.9164V19.2491C32.9354 19.1961 32.9547 19.1503 32.9932 19.1118C33.0317 19.0733 33.0775 19.054 33.1305 19.054H37.3788C37.4318 19.054 37.4775 19.0733 37.5161 19.1118C37.5546 19.1503 37.5739 19.1961 37.5739 19.2491V20.2606C37.5739 20.3136 37.5546 20.3593 37.5161 20.3979C37.4775 20.4364 37.4318 20.4557 37.3788 20.4557H34.8139V20.9542ZM34.8139 22.1608V22.8688H35.8615C35.9723 22.8688 36.0542 22.8327 36.1072 22.7604C36.165 22.6834 36.1939 22.5991 36.1939 22.5076V22.5003C36.1939 22.4088 36.1626 22.3293 36.1 22.2619C36.0422 22.1945 35.9627 22.1608 35.8615 22.1608H34.8139ZM40.9885 22.7026H43.8712C43.9242 22.7026 43.97 22.7219 44.0085 22.7604C44.047 22.799 44.0663 22.8447 44.0663 22.8977V23.9164C44.0663 23.9694 44.047 24.0152 44.0085 24.0537C43.97 24.0922 43.9242 24.1115 43.8712 24.1115H39.305C39.2521 24.1115 39.2063 24.0922 39.1678 24.0537C39.1292 24.0152 39.11 23.9694 39.11 23.9164V19.2491C39.11 19.1961 39.1292 19.1503 39.1678 19.1118C39.2063 19.0733 39.2521 19.054 39.305 19.054H43.799C43.852 19.054 43.8977 19.0733 43.9363 19.1118C43.9748 19.1503 43.9941 19.1961 43.9941 19.2491V20.2678C43.9941 20.3208 43.9748 20.3666 43.9363 20.4051C43.8977 20.4436 43.852 20.4629 43.799 20.4629H40.9885V20.9181H43.4016C43.4546 20.9181 43.5004 20.9373 43.5389 20.9759C43.5774 21.0144 43.5967 21.0602 43.5967 21.1131V22.0524C43.5967 22.1054 43.5774 22.1511 43.5389 22.1897C43.5004 22.2282 43.4546 22.2475 43.4016 22.2475H40.9885V22.7026ZM49.9519 22.5943C49.9519 23.0856 49.7183 23.4733 49.251 23.7575C48.7886 24.0417 48.1866 24.1838 47.4448 24.1838C46.4574 24.1838 45.7421 23.9429 45.299 23.4613C45.0678 23.206 44.9522 22.9459 44.9522 22.681C44.9522 22.6328 44.9666 22.5943 44.9955 22.5654C45.0292 22.5365 45.0678 22.522 45.1111 22.522H46.6934C46.7464 22.522 46.7994 22.5485 46.8523 22.6015C46.9053 22.6497 46.9439 22.6834 46.9679 22.7026C47.045 22.7556 47.1847 22.7821 47.387 22.7821C47.7964 22.7821 48.0011 22.6786 48.0011 22.4714C48.0011 22.3077 47.8157 22.2258 47.4448 22.2258H46.4839C46.4309 22.2258 46.3851 22.2065 46.3466 22.168C46.3081 22.1295 46.2888 22.0837 46.2888 22.0307V21.142C46.2888 21.0891 46.3081 21.0433 46.3466 21.0048C46.3851 20.9662 46.4309 20.947 46.4839 20.947H47.4448C47.8157 20.947 48.0011 20.8651 48.0011 20.7013C48.0011 20.6002 47.9505 20.5231 47.8494 20.4701C47.7482 20.4171 47.623 20.3906 47.4737 20.3906C47.3244 20.3906 47.2088 20.4003 47.1269 20.4195C47.0498 20.434 46.9968 20.4508 46.9679 20.4701C46.9439 20.4894 46.9053 20.5255 46.8523 20.5785C46.7994 20.6267 46.7464 20.6507 46.6934 20.6507H45.1111C45.0678 20.6507 45.0292 20.6363 44.9955 20.6074C44.9666 20.5785 44.9522 20.54 44.9522 20.4918C44.9522 20.1643 45.1352 19.8415 45.5013 19.5236C45.6843 19.3647 45.9444 19.2346 46.2816 19.1335C46.6187 19.0323 47.0065 18.9818 47.4448 18.9818C48.1817 18.9818 48.7838 19.1263 49.251 19.4153C49.7183 19.7043 49.9519 20.0944 49.9519 20.5857C49.9519 20.841 49.87 21.0602 49.7062 21.2432C49.5425 21.4262 49.3859 21.5394 49.2366 21.5828C49.3811 21.6213 49.5352 21.7369 49.699 21.9296C49.8676 22.1222 49.9519 22.3438 49.9519 22.5943Z" fill="white"/>
<path d="M35.3991 31.014H33.9108C33.8578 31.014 33.812 30.9947 33.7735 30.9562C33.735 30.9176 33.7157 30.8719 33.7157 30.8189V26.1516C33.7157 26.0986 33.735 26.0528 33.7735 26.0143C33.812 25.9757 33.8578 25.9565 33.9108 25.9565H37.834C37.8869 25.9565 37.9327 25.9757 37.9712 26.0143C38.0098 26.0528 38.029 26.0986 38.029 26.1516V27.3148C38.029 27.3678 38.0098 27.4135 37.9712 27.4521C37.9327 27.4906 37.8869 27.5099 37.834 27.5099H35.587L35.5942 30.8189C35.5942 30.8719 35.5749 30.9176 35.5364 30.9562C35.4979 30.9947 35.4521 31.014 35.3991 31.014ZM39.5651 25.9565H42.2673C42.9513 25.9565 43.4931 26.1227 43.8929 26.455C44.2927 26.7874 44.4926 27.2136 44.4926 27.7338C44.4926 28.254 44.324 28.6683 43.9868 28.9765C43.6497 29.28 43.0765 29.4317 42.2673 29.4317H41.3136V30.8189C41.3136 30.8719 41.2943 30.9176 41.2558 30.9562C41.2173 30.9947 41.1715 31.014 41.1185 31.014H39.5651C39.5122 31.014 39.4664 30.9947 39.4279 30.9562C39.3893 30.9176 39.3701 30.8719 39.3701 30.8189V26.1516C39.3701 26.0986 39.3893 26.0528 39.4279 26.0143C39.4664 25.9757 39.5122 25.9565 39.5651 25.9565ZM41.3208 27.3003V28.0951H42.2384C42.3492 28.0951 42.4383 28.0614 42.5057 27.9939C42.578 27.9265 42.6141 27.8326 42.6141 27.7122C42.6141 27.5917 42.5804 27.493 42.5129 27.4159C42.4455 27.3389 42.354 27.3003 42.2384 27.3003H41.3208ZM46.3032 31.014H44.9377C44.8944 31.014 44.8558 30.9995 44.8221 30.9706C44.7932 30.9369 44.7788 30.9056 44.7788 30.8767C44.7788 30.8478 44.7812 30.8261 44.786 30.8117L46.361 26.1949C46.4044 26.036 46.5128 25.9565 46.6862 25.9565H48.6947C48.8681 25.9565 48.9765 26.036 49.0198 26.1949L50.5949 30.8117C50.5997 30.8261 50.6021 30.8478 50.6021 30.8767C50.6021 30.9056 50.5853 30.9369 50.5515 30.9706C50.5226 30.9995 50.4865 31.014 50.4432 31.014H49.0776C48.9235 31.014 48.8151 30.9321 48.7525 30.7683L48.5719 30.2626H46.809L46.6284 30.7683C46.5658 30.9321 46.4574 31.014 46.3032 31.014ZM48.2034 28.8537L47.6904 27.3509L47.1775 28.8537H48.2034ZM54.7248 25.9565H56.2131C56.2661 25.9565 56.3119 25.9757 56.3504 26.0143C56.3889 26.0528 56.4082 26.0986 56.4082 26.1516V30.8189C56.4082 30.8719 56.3889 30.9176 56.3504 30.9562C56.3119 30.9947 56.2661 31.014 56.2131 31.014H54.7248C54.6718 31.014 54.626 30.9947 54.5875 30.9562C54.549 30.9176 54.5297 30.8719 54.5297 30.8189V29.28H53.0847V30.8189C53.0847 30.8719 53.0654 30.9176 53.0269 30.9562C52.9884 30.9947 52.9426 31.014 52.8896 31.014H51.4013C51.3483 31.014 51.3025 30.9971 51.264 30.9634C51.2255 30.9249 51.2062 30.8767 51.2062 30.8189V26.1516C51.2062 26.0986 51.2255 26.0528 51.264 26.0143C51.3025 25.9757 51.3483 25.9565 51.4013 25.9565H52.8896C52.9426 25.9565 52.9884 25.9757 53.0269 26.0143C53.0654 26.0528 53.0847 26.0986 53.0847 26.1516V27.6327H54.5297V26.1516C54.5297 26.0986 54.549 26.0528 54.5875 26.0143C54.626 25.9757 54.6718 25.9565 54.7248 25.9565ZM57.6408 25.9565H58.9847C59.0377 25.9565 59.0834 25.9757 59.122 26.0143C59.1605 26.0528 59.1798 26.0986 59.1798 26.1516V28.2757L60.7548 26.101C60.8271 26.0046 60.921 25.9565 61.0366 25.9565H62.207C62.26 25.9565 62.3058 25.9757 62.3443 26.0143C62.3829 26.0528 62.4021 26.0986 62.4021 26.1516V30.8189C62.4021 30.8719 62.3829 30.9176 62.3443 30.9562C62.3058 30.9947 62.26 31.014 62.207 31.014H60.8632C60.8102 31.014 60.7645 30.9947 60.7259 30.9562C60.6874 30.9176 60.6681 30.8719 60.6681 30.8189V28.8537L59.0931 30.8623C59.016 30.9634 58.9197 31.014 58.8041 31.014H57.6408C57.5879 31.014 57.5421 30.9947 57.5036 30.9562C57.465 30.9176 57.4458 30.8719 57.4458 30.8189V26.1516C57.4458 26.0986 57.465 26.0528 57.5036 26.0143C57.5421 25.9757 57.5879 25.9565 57.6408 25.9565ZM65.6506 29.4606H66.4453V26.1516C66.4453 26.0986 66.4646 26.0528 66.5031 26.0143C66.5416 25.9757 66.5874 25.9565 66.6404 25.9565H68.0565C68.1095 25.9565 68.1552 25.9757 68.1938 26.0143C68.2323 26.0528 68.2516 26.0986 68.2516 26.1516V29.4606H68.5261C68.5791 29.4606 68.6248 29.4799 68.6634 29.5184C68.7019 29.5569 68.7212 29.6027 68.7212 29.6557V31.7148C68.7212 31.7678 68.7019 31.8135 68.6634 31.8521C68.6248 31.8906 68.5791 31.9099 68.5261 31.9099H67.3629C67.3099 31.9099 67.2641 31.8906 67.2256 31.8521C67.1871 31.8135 67.1678 31.7678 67.1678 31.7148V31.014H63.9671C63.9141 31.014 63.8684 30.9947 63.8299 30.9562C63.7913 30.9176 63.7721 30.8719 63.7721 30.8189V26.1516C63.7721 26.0938 63.7913 26.048 63.8299 26.0143C63.8684 25.9757 63.9141 25.9565 63.9671 25.9565H65.4555C65.5085 25.9565 65.5542 25.9757 65.5928 26.0143C65.6313 26.0528 65.6506 26.0986 65.6506 26.1516V29.4606Z" fill="white"/>
</svg>
